<svg width="18" height="20" viewBox="0 0 18 20" fill="none" xmlns="http://www.w3.org/2000/svg">
<path d="M16.7383 8.6967L8.6066 16.8284C7.0439 18.3911 4.51245 18.3911 2.94975 16.8284C1.38704 15.2657 1.38704 12.7343 2.94975 11.1716L11.7886 2.33274C12.7644 1.35693 14.3483 1.35693 15.3241 2.33274C16.2999 3.30855 16.2999 4.89247 15.3241 5.86827L7.89949 13.2929C7.51059 13.6818 6.87419 13.6818 6.48528 13.2929C6.09637 12.904 6.09637 12.2676 6.48528 11.8787L13.2028 5.16117L12.1421 4.10051L5.42462 10.818C4.44881 11.7938 4.44881 13.3777 5.42462 14.3536C6.40043 15.3294 7.98435 15.3294 8.96015 14.3536L16.3848 6.92893C17.9475 5.36623 17.9475 2.83478 16.3848 1.27208C14.8221 -0.290628 12.2906 -0.290627 10.7279 1.27208L1.88909 10.1109C-0.260517 12.2605 -0.260517 15.7395 1.88909 17.8891C4.03869 20.0387 7.51766 20.0387 9.66726 17.8891L17.799 9.75736L16.7383 8.6967Z" fill="#111827"/>
</svg>
