<svg width="193" height="175" viewBox="0 0 193 175" fill="none" xmlns="http://www.w3.org/2000/svg">
<path opacity="0.5" d="M72.2 0.59997L41.4 130.1L35.8 100C47 100 56.1 103.5 63.1 110.5C70.1 117.033 73.6 125.9 73.6 137.1C73.6 148.3 70.1 157.4 63.1 164.4C56.1 171.4 47.4667 174.9 37.2 174.9C26 174.9 16.9 171.4 9.9 164.4C3.36667 156.933 0.100002 147.833 0.100002 137.1C0.100002 132.9 0.333335 129.167 0.800001 125.9C1.26667 122.633 2.2 118.667 3.6 114C5 109.333 6.86667 103.733 9.2 97.2L38.6 0.59997H72.2ZM191.2 0.59997L160.4 130.1L154.8 100C166 100 175.1 103.5 182.1 110.5C189.1 117.033 192.6 125.9 192.6 137.1C192.6 148.3 189.1 157.4 182.1 164.4C175.1 171.4 166.467 174.9 156.2 174.9C145 174.9 135.9 171.4 128.9 164.4C122.367 156.933 119.1 147.833 119.1 137.1C119.1 132.9 119.333 129.167 119.8 125.9C120.267 122.633 121.2 118.667 122.6 114C124 109.333 125.867 103.733 128.2 97.2L157.6 0.59997H191.2Z" fill="#99FF99"/>
</svg>
