<svg width="27" height="23" viewBox="0 0 27 23" fill="none" xmlns="http://www.w3.org/2000/svg">
<path d="M10.92 0.639997L6.92 16.88L5.96 12.24C7.50667 12.24 8.78667 12.72 9.8 13.68C10.8133 14.64 11.32 15.92 11.32 17.52C11.32 19.12 10.8133 20.4267 9.8 21.44C8.78667 22.4533 7.53333 22.96 6.04 22.96C4.49333 22.96 3.21333 22.4533 2.2 21.44C1.18667 20.3733 0.68 19.0667 0.68 17.52C0.68 16.9867 0.706667 16.48 0.76 16C0.866667 15.52 1.02667 14.96 1.24 14.32C1.45333 13.6267 1.74667 12.8 2.12 11.84L5.88 0.639997H10.92ZM26.04 0.639997L22.04 16.88L21.08 12.24C22.6267 12.24 23.9067 12.72 24.92 13.68C25.9333 14.64 26.44 15.92 26.44 17.52C26.44 19.12 25.9333 20.4267 24.92 21.44C23.9067 22.4533 22.6533 22.96 21.16 22.96C19.6133 22.96 18.3333 22.4533 17.32 21.44C16.3067 20.3733 15.8 19.0667 15.8 17.52C15.8 16.9867 15.8267 16.48 15.88 16C15.9867 15.52 16.1467 14.96 16.36 14.32C16.5733 13.6267 16.8667 12.8 17.24 11.84L21 0.639997H26.04Z" fill="white"/>
</svg>
