<svg width="368" height="80" viewBox="0 0 368 80" fill="none" xmlns="http://www.w3.org/2000/svg">
<path d="M16.088 56.808C10.9253 56.808 7 55.592 4.312 53.16C1.66667 50.7707 0.344 47.4213 0.344 43.112C0.344 40.2107 0.898667 37.2027 2.008 34.088C3.16 30.9307 4.76 27.8587 6.808 24.872C8.89867 21.8853 11.3733 19.1547 14.232 16.68C17.1333 14.1627 20.3547 12.072 23.896 10.408C27.4373 8.744 31.2133 7.67733 35.224 7.208C35.48 7.16533 35.7573 7.144 36.056 7.144C36.3547 7.144 36.6533 7.144 36.952 7.144C37.9333 7.144 38.8933 7.208 39.832 7.336C40.8133 7.464 41.5387 7.63467 42.008 7.848C42.2213 7.592 42.4987 7.08 42.84 6.312C43.1813 5.544 43.5227 4.73333 43.864 3.88C44.248 2.984 44.5467 2.216 44.76 1.576C45.016 0.935997 45.144 0.615997 45.144 0.615997C45.3573 0.615997 45.592 0.786664 45.848 1.128C46.1467 1.46933 46.296 1.93867 46.296 2.536C46.296 2.62133 46.1253 3.06933 45.784 3.88C45.4853 4.69066 45.1013 5.56533 44.632 6.504C44.2053 7.4 43.7787 8.01867 43.352 8.36C43.6933 8.53066 43.864 8.78666 43.864 9.128C43.864 9.72533 43.4373 10.5147 42.584 11.496C41.7307 12.4773 40.728 13.48 39.576 14.504C38.424 15.528 37.3147 16.4453 36.248 17.256C35.224 18.024 34.52 18.536 34.136 18.792C33.1973 19.432 32.6 19.752 32.344 19.752C32.2587 19.752 32.216 19.7093 32.216 19.624C32.216 19.624 32.4293 19.3467 32.856 18.792C33.2827 18.1947 33.8373 17.4693 34.52 16.616C35.2027 15.72 35.9067 14.824 36.632 13.928C37.4 12.9893 38.104 12.1573 38.744 11.432C38.4027 11.2613 37.8693 11.176 37.144 11.176C34.4987 11.176 31.7893 11.6453 29.016 12.584C26.2853 13.5227 23.5973 14.824 20.952 16.488C18.3493 18.1093 15.896 19.9867 13.592 22.12C11.288 24.2533 9.26133 26.536 7.512 28.968C5.76267 31.3573 4.39733 33.7893 3.416 36.264C2.43467 38.7387 1.944 41.128 1.944 43.432C1.944 46.6747 3.07467 48.9573 5.336 50.28C7.64 51.6027 10.712 52.264 14.552 52.264C17.368 52.264 20.4187 51.9653 23.704 51.368C26.9893 50.7707 30.3173 49.9813 33.688 49C37.0587 48.0187 40.28 46.952 43.352 45.8C46.4667 44.6053 49.24 43.4107 51.672 42.216C54.1467 40.9787 56.088 39.848 57.496 38.824C57.7093 38.6107 57.9227 38.504 58.136 38.504C58.3067 38.504 58.392 38.5893 58.392 38.76C58.392 38.9307 58.3067 39.1013 58.136 39.272C56.1733 41.192 53.8907 43.0693 51.288 44.904C48.728 46.696 45.6987 48.4027 42.2 50.024C38.744 51.6453 34.6267 53.1387 29.848 54.504C24.6 56.04 20.0133 56.808 16.088 56.808ZM63.96 47.976C62.5093 47.976 61.3787 47.5067 60.568 46.568C59.8 45.6293 59.2667 44.4347 58.968 42.984C58.712 41.4907 58.584 39.9973 58.584 38.504C58.584 37.48 58.6267 36.52 58.712 35.624C58.7973 34.6853 58.8827 33.8747 58.968 33.192C59.1813 31.4427 59.4587 29.7573 59.8 28.136C60.1413 26.5147 60.4613 25.128 60.76 23.976C61.1013 22.824 61.3147 22.0773 61.4 21.736C61.5707 21.1387 61.8907 20.84 62.36 20.84C62.8293 20.84 63.3627 21.16 63.96 21.8C64.5573 22.3973 64.984 22.888 65.24 23.272C66.2213 23.5707 67.1813 23.9333 68.12 24.36C69.0587 24.744 69.8267 25.1707 70.424 25.64C71.064 26.1093 71.384 26.6213 71.384 27.176C71.384 28.2427 70.936 29.3093 70.04 30.376C69.144 31.4427 68.0133 32.424 66.648 33.32C65.2827 34.216 63.896 34.984 62.488 35.624C62.36 36.648 62.296 37.672 62.296 38.696C62.296 40.4027 62.5093 41.896 62.936 43.176C63.3627 44.456 64.088 45.096 65.112 45.096C66.008 45.096 66.8613 44.776 67.672 44.136C68.5253 43.496 69.3147 42.6853 70.04 41.704C70.7653 40.7227 71.4053 39.7413 71.96 38.76C72.5573 37.736 73.0053 36.8827 73.304 36.2C73.3893 35.944 73.5813 35.816 73.88 35.816C74.0507 35.816 74.136 36.008 74.136 36.392C74.136 36.7333 73.88 37.4587 73.368 38.568C72.856 39.592 72.3227 40.5733 71.768 41.512C71.256 42.408 70.744 43.1973 70.232 43.88C69.5067 44.8187 68.6107 45.736 67.544 46.632C66.52 47.528 65.3253 47.976 63.96 47.976ZM62.68 33.832C64.1733 33.0213 65.496 32.0613 66.648 30.952C67.8427 29.8 68.44 28.5627 68.44 27.24C68.44 26.7707 68.0773 26.3013 67.352 25.832C66.6693 25.32 65.8587 24.8933 64.92 24.552C64.408 25.9173 63.96 27.368 63.576 28.904C63.2347 30.44 62.936 32.0827 62.68 33.832ZM84.65 55.528C83.8393 55.528 83.1567 55.336 82.602 54.952C82.0473 54.6107 81.77 54.056 81.77 53.288C81.77 52.4773 82.09 51.5173 82.73 50.408C83.37 49.2987 84.0953 48.232 84.906 47.208C85.7167 46.184 86.3567 45.3947 86.826 44.84C88.4473 42.9627 89.7487 41.1493 90.73 39.4C91.754 37.6507 92.266 35.9867 92.266 34.408C92.266 32.9147 91.7327 31.5493 90.666 30.312C89.642 29.032 87.9353 27.88 85.546 26.856C85.034 26.6 84.4793 26.3653 83.882 26.152C83.3273 25.9387 82.7513 25.7253 82.154 25.512C81.1727 28.4987 80.2127 31.6987 79.274 35.112C78.378 38.5253 77.5673 41.9813 76.842 45.48C76.1167 48.9787 75.5407 52.392 75.114 55.72C74.73 59.0907 74.538 62.2053 74.538 65.064C74.538 66.728 74.602 68.264 74.73 69.672C74.9007 71.1227 75.1567 72.424 75.498 73.576C75.9673 75.1973 76.522 76.2853 77.162 76.84C77.8447 77.3947 78.4847 77.672 79.082 77.672C79.5087 77.672 79.8927 77.5867 80.234 77.416C80.618 77.288 80.9167 77.16 81.13 77.032C81.4713 76.8613 81.77 76.776 82.026 76.776C82.282 76.776 82.41 76.8827 82.41 77.096C82.41 77.1813 82.346 77.3307 82.218 77.544C82.0473 77.7573 81.6207 78.12 80.938 78.632C80.2553 79.1867 79.4233 79.464 78.442 79.464C78.1433 79.464 77.802 79.4213 77.418 79.336C77.0767 79.2507 76.714 79.1013 76.33 78.888C75.1353 78.2053 74.1967 77.096 73.514 75.56C72.874 74.0667 72.4047 72.2747 72.106 70.184C71.85 68.136 71.722 65.96 71.722 63.656C71.722 60.7973 71.85 57.9387 72.106 55.08C72.4047 52.264 72.7033 49.832 73.002 47.784C73.258 45.8213 73.6633 43.6027 74.218 41.128C74.7727 38.6107 75.4553 36.008 76.266 33.32C77.0767 30.5893 78.0153 27.9227 79.082 25.32C78.2287 24.68 77.29 24.2107 76.266 23.912C75.2847 23.6133 74.346 23.4213 73.45 23.336C72.5967 23.2507 71.9567 23.208 71.53 23.208C71.274 23.1653 71.1887 23.016 71.274 22.76C71.402 22.4613 71.6153 22.184 71.914 21.928C72.2127 21.6293 72.5113 21.48 72.81 21.48C75.2847 21.48 77.7807 21.8213 80.298 22.504C80.554 21.992 80.7887 21.5013 81.002 21.032C80.746 20.6053 80.554 20.1787 80.426 19.752C80.3407 19.3253 80.298 18.92 80.298 18.536C80.298 18.1093 80.362 17.768 80.49 17.512C80.7887 16.7013 81.066 16.0613 81.322 15.592C81.6207 15.08 82.026 14.9093 82.538 15.08C83.2633 15.2933 83.9033 15.6773 84.458 16.232C85.0553 16.7867 85.2687 17.3413 85.098 17.896C84.3727 19.5173 83.6687 21.3093 82.986 23.272C85.3327 24.1253 87.4873 25.2347 89.45 26.6C91.4553 27.9227 93.1193 29.416 94.442 31.08C95.4233 32.3173 95.914 33.704 95.914 35.24C95.914 36.648 95.5087 38.12 94.698 39.656C93.93 41.192 92.8847 42.7707 91.562 44.392C91.178 44.8613 90.666 45.4587 90.026 46.184C89.386 46.9093 88.7247 47.6773 88.042 48.488C87.402 49.256 86.8473 49.9813 86.378 50.664C85.9513 51.3893 85.738 51.9653 85.738 52.392C85.738 52.8613 86.0153 53.1173 86.57 53.16C86.7407 53.16 86.9113 53.16 87.082 53.16C87.2953 53.2027 87.5087 53.2027 87.722 53.16H87.85C88.2767 53.16 88.49 53.3307 88.49 53.672C88.49 54.0133 88.2767 54.3333 87.85 54.632C86.7833 55.2293 85.7167 55.528 84.65 55.528ZM109.711 45.608C108.09 45.608 107.002 44.712 106.447 42.92C105.935 41.128 105.679 38.9307 105.679 36.328C105.679 35.2187 105.7 34.152 105.743 33.128C105.828 32.104 105.871 31.1867 105.871 30.376C105.871 29.3947 105.7 28.904 105.359 28.904C104.804 28.904 104.122 29.3947 103.311 30.376C102.543 31.3573 101.711 32.6587 100.815 34.28C99.919 35.9013 98.9803 37.672 97.999 39.592C97.7003 40.104 97.4017 40.36 97.103 40.36C96.9323 40.36 96.847 40.232 96.847 39.976C96.847 39.6347 96.9963 39.1653 97.295 38.568C97.8923 37.416 98.511 36.0293 99.151 34.408C99.8337 32.7867 100.58 31.1867 101.391 29.608C102.244 28.0293 103.183 26.728 104.207 25.704C105.231 24.6373 106.362 24.104 107.599 24.104C108.452 24.104 109.028 24.488 109.327 25.256C109.626 26.024 109.775 26.9627 109.775 28.072C109.775 29.6507 109.69 31.1867 109.519 32.68C109.348 34.1307 109.263 35.3253 109.263 36.264C109.263 38.184 109.455 39.7627 109.839 41C110.266 42.2373 110.884 42.856 111.695 42.856C112.207 42.856 112.698 42.5787 113.167 42.024C113.636 41.4693 114.042 40.872 114.383 40.232C114.767 39.592 115.023 39.1227 115.151 38.824C116.047 37.16 116.602 36.0933 116.815 35.624C117.028 35.112 117.306 34.856 117.647 34.856C117.775 34.856 117.839 34.9413 117.839 35.112C117.839 35.1973 117.796 35.4107 117.711 35.752C117.199 37.16 116.559 38.632 115.791 40.168C115.066 41.6613 114.191 42.9413 113.167 44.008C112.143 45.0747 110.991 45.608 109.711 45.608ZM122.273 47.976C120.822 47.976 119.691 47.5067 118.881 46.568C118.113 45.6293 117.579 44.4347 117.281 42.984C117.025 41.4907 116.897 39.9973 116.897 38.504C116.897 37.48 116.939 36.52 117.025 35.624C117.11 34.6853 117.195 33.8747 117.281 33.192C117.494 31.4427 117.771 29.7573 118.113 28.136C118.454 26.5147 118.774 25.128 119.073 23.976C119.414 22.824 119.627 22.0773 119.713 21.736C119.883 21.1387 120.203 20.84 120.673 20.84C121.142 20.84 121.675 21.16 122.273 21.8C122.87 22.3973 123.297 22.888 123.553 23.272C124.534 23.5707 125.494 23.9333 126.433 24.36C127.371 24.744 128.139 25.1707 128.737 25.64C129.377 26.1093 129.697 26.6213 129.697 27.176C129.697 28.2427 129.249 29.3093 128.353 30.376C127.457 31.4427 126.326 32.424 124.961 33.32C123.595 34.216 122.209 34.984 120.801 35.624C120.673 36.648 120.609 37.672 120.609 38.696C120.609 40.4027 120.822 41.896 121.249 43.176C121.675 44.456 122.401 45.096 123.425 45.096C124.321 45.096 125.174 44.776 125.985 44.136C126.838 43.496 127.627 42.6853 128.353 41.704C129.078 40.7227 129.718 39.7413 130.273 38.76C130.87 37.736 131.318 36.8827 131.617 36.2C131.702 35.944 131.894 35.816 132.193 35.816C132.363 35.816 132.449 36.008 132.449 36.392C132.449 36.7333 132.193 37.4587 131.681 38.568C131.169 39.592 130.635 40.5733 130.081 41.512C129.569 42.408 129.057 43.1973 128.545 43.88C127.819 44.8187 126.923 45.736 125.857 46.632C124.833 47.528 123.638 47.976 122.273 47.976ZM120.993 33.832C122.486 33.0213 123.809 32.0613 124.961 30.952C126.155 29.8 126.753 28.5627 126.753 27.24C126.753 26.7707 126.39 26.3013 125.665 25.832C124.982 25.32 124.171 24.8933 123.233 24.552C122.721 25.9173 122.273 27.368 121.889 28.904C121.547 30.44 121.249 32.0827 120.993 33.832ZM139.507 17.96C138.739 17.96 137.928 17.7893 137.075 17.448C136.264 17.064 135.581 16.552 135.027 15.912C134.472 15.272 134.195 14.5467 134.195 13.736C134.195 13.5653 134.28 13.48 134.451 13.48C134.749 13.48 135.069 13.7573 135.411 14.312C135.752 14.824 136.243 15.3573 136.883 15.912C137.565 16.424 138.568 16.68 139.891 16.68C140.829 16.68 141.64 16.4667 142.323 16.04C143.005 15.6133 143.581 15.144 144.051 14.632C144.52 14.0773 144.904 13.5867 145.203 13.16C145.501 12.7333 145.736 12.52 145.907 12.52C146.077 12.52 146.163 12.6053 146.163 12.776C146.163 12.8187 146.141 12.8613 146.099 12.904C146.099 12.9467 146.099 13.0107 146.099 13.096C145.544 14.248 144.712 15.3573 143.603 16.424C142.493 17.448 141.128 17.96 139.507 17.96ZM143.859 49.064C143.133 49.064 142.429 48.7227 141.747 48.04C141.107 47.3147 140.787 46.3973 140.787 45.288C140.787 43.1973 140.851 41.128 140.979 39.08C141.149 36.9893 141.32 35.1333 141.491 33.512C141.704 31.848 141.853 30.632 141.939 29.864C141.512 31.656 140.979 33.448 140.339 35.24C139.699 37.032 139.059 38.7173 138.419 40.296C137.779 41.832 137.224 43.1333 136.755 44.2C136.285 45.224 136.008 45.8853 135.923 46.184C135.752 46.6533 135.389 46.888 134.835 46.888C134.408 46.888 133.917 46.76 133.363 46.504C132.808 46.248 132.317 45.9493 131.891 45.608C131.507 45.224 131.293 44.904 131.251 44.648C131.208 44.4347 131.187 44.2 131.187 43.944C131.187 43.6453 131.187 43.3467 131.187 43.048C131.187 41.8107 131.293 40.168 131.507 38.12C131.72 36.0293 132.061 33.384 132.531 30.184C132.787 28.4347 132.915 27.0267 132.915 25.96C132.915 24.8507 132.787 23.9973 132.531 23.4C132.317 22.8027 132.04 22.3547 131.699 22.056C131.016 22.056 130.312 21.992 129.587 21.864C128.861 21.6933 128.498 21.5013 128.498 21.288C128.498 21.16 128.84 20.9893 129.523 20.776C130.248 20.5627 131.101 20.392 132.083 20.264C133.064 20.0933 133.96 20.008 134.771 20.008C135.368 20.008 135.837 20.072 136.179 20.2C136.563 20.328 136.755 20.5627 136.755 20.904C136.755 22.0987 136.648 23.5707 136.435 25.32C136.221 27.0267 135.965 28.84 135.667 30.76C135.411 32.68 135.176 34.5573 134.963 36.392C134.749 38.2267 134.643 39.8693 134.643 41.32C134.643 41.832 134.664 42.3227 134.707 42.792C134.749 43.2187 134.813 43.6027 134.899 43.944C135.24 43.8587 135.667 43.304 136.179 42.28C136.733 41.2133 137.309 39.8693 137.907 38.248C138.547 36.6267 139.165 34.8987 139.763 33.064C140.36 31.2293 140.893 29.48 141.363 27.816C141.832 26.152 142.173 24.744 142.387 23.592C142.429 23.3787 142.6 23.272 142.899 23.272C143.368 23.272 143.88 23.528 144.435 24.04C145.032 24.5093 145.459 25.0427 145.715 25.64C145.587 26.152 145.416 27.0693 145.203 28.392C145.032 29.7147 144.84 31.2293 144.627 32.936C144.456 34.6 144.307 36.2427 144.179 37.864C144.093 39.4427 144.051 40.7867 144.051 41.896C144.051 43.2187 144.157 44.0507 144.371 44.392C144.584 44.7333 144.84 44.904 145.139 44.904C145.48 44.904 145.864 44.6053 146.291 44.008C146.76 43.4107 147.229 42.664 147.699 41.768C148.168 40.872 148.637 39.9973 149.107 39.144C149.576 38.248 149.981 37.5013 150.323 36.904C150.707 36.3067 151.005 36.008 151.219 36.008C151.389 36.008 151.475 36.1147 151.475 36.328C151.475 36.456 151.411 36.6907 151.283 37.032C151.112 37.4587 150.813 38.1627 150.387 39.144C150.003 40.0827 149.533 41.128 148.979 42.28C148.424 43.3893 147.848 44.456 147.251 45.48C146.653 46.504 146.056 47.3573 145.458 48.04C144.861 48.7227 144.328 49.064 143.859 49.064ZM180.526 56.808C175.363 56.808 171.438 55.592 168.75 53.16C166.104 50.7707 164.782 47.4213 164.782 43.112C164.782 40.2107 165.336 37.2027 166.446 34.088C167.598 30.9307 169.198 27.8587 171.246 24.872C173.336 21.8853 175.811 19.1547 178.67 16.68C181.571 14.1627 184.792 12.072 188.334 10.408C191.875 8.744 195.651 7.67733 199.662 7.208C199.918 7.16533 200.195 7.144 200.494 7.144C200.792 7.144 201.091 7.144 201.39 7.144C202.371 7.144 203.331 7.208 204.27 7.336C205.251 7.464 205.976 7.63467 206.446 7.848C206.659 7.592 206.936 7.08 207.278 6.312C207.619 5.544 207.96 4.73333 208.302 3.88C208.686 2.984 208.984 2.216 209.198 1.576C209.454 0.935997 209.582 0.615997 209.582 0.615997C209.795 0.615997 210.03 0.786664 210.286 1.128C210.584 1.46933 210.734 1.93867 210.734 2.536C210.734 2.62133 210.563 3.06933 210.222 3.88C209.923 4.69066 209.539 5.56533 209.07 6.504C208.643 7.4 208.216 8.01867 207.79 8.36C208.131 8.53066 208.302 8.78666 208.302 9.128C208.302 9.72533 207.875 10.5147 207.022 11.496C206.168 12.4773 205.166 13.48 204.014 14.504C202.862 15.528 201.752 16.4453 200.686 17.256C199.662 18.024 198.958 18.536 198.574 18.792C197.635 19.432 197.038 19.752 196.782 19.752C196.696 19.752 196.654 19.7093 196.654 19.624C196.654 19.624 196.867 19.3467 197.294 18.792C197.72 18.1947 198.275 17.4693 198.958 16.616C199.64 15.72 200.344 14.824 201.069 13.928C201.838 12.9893 202.542 12.1573 203.182 11.432C202.84 11.2613 202.307 11.176 201.582 11.176C198.936 11.176 196.227 11.6453 193.454 12.584C190.723 13.5227 188.035 14.824 185.39 16.488C182.787 18.1093 180.334 19.9867 178.03 22.12C175.726 24.2533 173.699 26.536 171.95 28.968C170.2 31.3573 168.835 33.7893 167.854 36.264C166.872 38.7387 166.382 41.128 166.382 43.432C166.382 46.6747 167.512 48.9573 169.774 50.28C172.078 51.6027 175.15 52.264 178.99 52.264C181.806 52.264 184.856 51.9653 188.142 51.368C191.427 50.7707 194.755 49.9813 198.126 49C201.496 48.0187 204.718 46.952 207.79 45.8C210.904 44.6053 213.678 43.4107 216.11 42.216C218.584 40.9787 220.526 39.848 221.934 38.824C222.147 38.6107 222.36 38.504 222.574 38.504C222.744 38.504 222.83 38.5893 222.83 38.76C222.83 38.9307 222.744 39.1013 222.574 39.272C220.611 41.192 218.328 43.0693 215.726 44.904C213.166 46.696 210.136 48.4027 206.638 50.024C203.182 51.6453 199.064 53.1387 194.286 54.504C189.038 56.04 184.451 56.808 180.526 56.808ZM234.734 47.656C234.008 47.8267 233.39 47.5493 232.878 46.824C232.408 46.056 232.024 45.0107 231.726 43.688C231.47 42.3227 231.278 40.808 231.15 39.144C231.064 37.48 231.022 35.816 231.022 34.152C231.022 32.488 231.064 30.9307 231.15 29.48C231.235 28.0293 231.32 26.8773 231.406 26.024C230.766 27.0907 230.062 28.6907 229.294 30.824C228.526 32.9147 227.587 35.2827 226.478 37.928C225.838 39.464 225.091 40.9573 224.238 42.408C223.427 43.8587 222.574 45.0747 221.678 46.056C220.824 46.9947 220.014 47.464 219.245 47.464C218.648 47.464 218.072 47.272 217.517 46.888C216.963 46.4613 216.685 45.9707 216.685 45.416C216.685 44.4773 216.877 44.2 217.261 44.584C217.517 44.84 217.816 45.1173 218.157 45.416C218.499 45.672 218.819 45.8 219.117 45.8C219.715 45.8 220.376 45.3733 221.102 44.52C221.827 43.624 222.574 42.472 223.342 41.064C224.11 39.6133 224.856 38.0987 225.582 36.52C225.795 36.0507 226.136 35.2187 226.606 34.024C227.075 32.7867 227.608 31.4213 228.206 29.928C228.846 28.4347 229.464 27.0267 230.062 25.704C230.659 24.3387 231.171 23.3147 231.598 22.632C232.579 21.1387 233.496 20.392 234.35 20.392C235.075 20.392 235.438 20.9893 235.438 22.184C235.438 22.568 235.395 23.2933 235.31 24.36C235.224 25.4267 235.118 26.7067 234.99 28.2C234.904 29.6933 234.819 31.272 234.734 32.936C234.648 34.5573 234.606 36.1147 234.606 37.608C234.606 39.5707 234.712 41.2347 234.926 42.6C235.139 43.9227 235.523 44.584 236.078 44.584C236.419 44.584 236.782 44.328 237.166 43.816C237.592 43.304 237.976 42.6853 238.318 41.96C238.702 41.192 239.022 40.488 239.278 39.848C239.576 39.208 239.768 38.76 239.854 38.504C240.024 38.0347 240.259 37.288 240.558 36.264C240.899 35.24 241.24 34.1307 241.582 32.936C241.966 31.6987 242.328 30.5467 242.67 29.48C243.011 28.3707 243.288 27.496 243.502 26.856C243.587 26.472 243.651 26.1093 243.694 25.768C243.779 25.384 243.864 25 243.95 24.616C244.206 23.4213 244.568 22.4827 245.038 21.8C245.507 21.1173 245.998 20.776 246.51 20.776C247.278 20.776 247.854 21.544 248.238 23.08C248.195 23.6773 248.024 24.5947 247.726 25.832C247.47 27.0693 247.171 28.52 246.83 30.184C246.488 31.8053 246.19 33.512 245.934 35.304C245.678 37.0533 245.55 38.76 245.55 40.424C245.55 42.088 245.763 43.432 246.19 44.456C246.659 45.48 247.278 45.992 248.046 45.992C248.814 45.992 249.454 45.736 249.966 45.224C250.478 44.712 250.883 44.2213 251.182 43.752C251.523 43.24 251.758 42.984 251.886 42.984C252.056 42.984 252.142 43.0693 252.142 43.24C252.142 43.4107 252.078 43.6027 251.95 43.816C251.822 44.1147 251.608 44.5627 251.31 45.16C251.054 45.7573 250.712 46.312 250.286 46.824C249.859 47.2933 249.304 47.528 248.622 47.528C247.299 47.528 246.232 47.1867 245.422 46.504C244.611 45.7787 244.014 44.8827 243.63 43.816C243.246 42.7067 242.99 41.5547 242.862 40.36C242.734 39.1653 242.67 38.056 242.67 37.032C242.67 36.5627 242.67 36.072 242.67 35.56C242.67 35.0053 242.691 34.4507 242.734 33.896C242.392 35.0907 241.944 36.456 241.39 37.992C240.835 39.4853 240.195 40.936 239.47 42.344C238.787 43.7093 238.04 44.8827 237.23 45.864C236.419 46.8453 235.587 47.4427 234.734 47.656ZM266.734 49.064C266.008 49.064 265.304 48.7227 264.622 48.04C263.982 47.3147 263.662 46.3973 263.662 45.288C263.662 43.1973 263.726 41.128 263.854 39.08C264.024 36.9893 264.195 35.1333 264.366 33.512C264.579 31.848 264.728 30.632 264.814 29.864C264.387 31.656 263.854 33.448 263.214 35.24C262.574 37.032 261.934 38.7173 261.294 40.296C260.654 41.832 260.099 43.1333 259.63 44.2C259.16 45.224 258.883 45.8853 258.798 46.184C258.627 46.6533 258.264 46.888 257.71 46.888C257.283 46.888 256.792 46.76 256.238 46.504C255.683 46.248 255.192 45.9493 254.766 45.608C254.382 45.224 254.168 44.904 254.126 44.648C254.083 44.4347 254.062 44.2 254.062 43.944C254.062 43.6453 254.062 43.3467 254.062 43.048C254.062 41.8107 254.168 40.168 254.382 38.12C254.595 36.0293 254.936 33.384 255.406 30.184C255.662 28.4347 255.79 27.0267 255.79 25.96C255.79 24.8507 255.662 23.9973 255.406 23.4C255.192 22.8027 254.915 22.3547 254.574 22.056C253.891 22.056 253.187 21.992 252.462 21.864C251.736 21.6933 251.373 21.5013 251.373 21.288C251.373 21.16 251.715 20.9893 252.398 20.776C253.123 20.5627 253.976 20.392 254.958 20.264C255.939 20.0933 256.835 20.008 257.646 20.008C258.243 20.008 258.712 20.072 259.054 20.2C259.438 20.328 259.63 20.5627 259.63 20.904C259.63 22.0987 259.523 23.5707 259.31 25.32C259.096 27.0267 258.84 28.84 258.542 30.76C258.286 32.68 258.051 34.5573 257.838 36.392C257.624 38.2267 257.518 39.8693 257.518 41.32C257.518 41.832 257.539 42.3227 257.582 42.792C257.624 43.2187 257.688 43.6027 257.774 43.944C258.115 43.8587 258.542 43.304 259.054 42.28C259.608 41.2133 260.184 39.8693 260.782 38.248C261.422 36.6267 262.04 34.8987 262.638 33.064C263.235 31.2293 263.768 29.48 264.238 27.816C264.707 26.152 265.048 24.744 265.262 23.592C265.304 23.3787 265.475 23.272 265.774 23.272C266.243 23.272 266.755 23.528 267.31 24.04C267.907 24.5093 268.334 25.0427 268.59 25.64C268.462 26.152 268.291 27.0693 268.078 28.392C267.907 29.7147 267.715 31.2293 267.502 32.936C267.331 34.6 267.182 36.2427 267.054 37.864C266.968 39.4427 266.926 40.7867 266.926 41.896C266.926 43.2187 267.032 44.0507 267.246 44.392C267.459 44.7333 267.715 44.904 268.014 44.904C268.355 44.904 268.739 44.6053 269.166 44.008C269.635 43.4107 270.104 42.664 270.574 41.768C271.043 40.872 271.512 39.9973 271.982 39.144C272.451 38.248 272.856 37.5013 273.198 36.904C273.582 36.3067 273.88 36.008 274.094 36.008C274.264 36.008 274.35 36.1147 274.35 36.328C274.35 36.456 274.286 36.6907 274.158 37.032C273.987 37.4587 273.688 38.1627 273.262 39.144C272.878 40.0827 272.408 41.128 271.854 42.28C271.299 43.3893 270.723 44.456 270.126 45.48C269.528 46.504 268.931 47.3573 268.333 48.04C267.736 48.7227 267.203 49.064 266.734 49.064ZM284.713 55.528C283.902 55.528 283.219 55.336 282.665 54.952C282.11 54.6107 281.833 54.056 281.833 53.288C281.833 52.4773 282.153 51.5173 282.793 50.408C283.433 49.2987 284.158 48.232 284.969 47.208C285.779 46.184 286.419 45.3947 286.889 44.84C288.51 42.9627 289.811 41.1493 290.793 39.4C291.817 37.6507 292.329 35.9867 292.329 34.408C292.329 32.9147 291.795 31.5493 290.729 30.312C289.705 29.032 287.998 27.88 285.609 26.856C285.097 26.6 284.542 26.3653 283.945 26.152C283.39 25.9387 282.814 25.7253 282.217 25.512C281.235 28.4987 280.275 31.6987 279.337 35.112C278.441 38.5253 277.63 41.9813 276.905 45.48C276.179 48.9787 275.603 52.392 275.177 55.72C274.793 59.0907 274.601 62.2053 274.601 65.064C274.601 66.728 274.665 68.264 274.793 69.672C274.963 71.1227 275.219 72.424 275.561 73.576C276.03 75.1973 276.585 76.2853 277.225 76.84C277.907 77.3947 278.547 77.672 279.145 77.672C279.571 77.672 279.955 77.5867 280.297 77.416C280.681 77.288 280.979 77.16 281.193 77.032C281.534 76.8613 281.833 76.776 282.089 76.776C282.345 76.776 282.473 76.8827 282.473 77.096C282.473 77.1813 282.409 77.3307 282.281 77.544C282.11 77.7573 281.683 78.12 281.001 78.632C280.318 79.1867 279.486 79.464 278.505 79.464C278.206 79.464 277.865 79.4213 277.481 79.336C277.139 79.2507 276.777 79.1013 276.393 78.888C275.198 78.2053 274.259 77.096 273.577 75.56C272.937 74.0667 272.467 72.2747 272.169 70.184C271.913 68.136 271.785 65.96 271.785 63.656C271.785 60.7973 271.913 57.9387 272.169 55.08C272.467 52.264 272.766 49.832 273.065 47.784C273.321 45.8213 273.726 43.6027 274.281 41.128C274.835 38.6107 275.518 36.008 276.329 33.32C277.139 30.5893 278.078 27.9227 279.145 25.32C278.291 24.68 277.353 24.2107 276.329 23.912C275.347 23.6133 274.409 23.4213 273.513 23.336C272.659 23.2507 272.019 23.208 271.593 23.208C271.337 23.1653 271.251 23.016 271.337 22.76C271.465 22.4613 271.678 22.184 271.977 21.928C272.275 21.6293 272.574 21.48 272.873 21.48C275.347 21.48 277.843 21.8213 280.361 22.504C280.617 21.992 280.851 21.5013 281.065 21.032C280.809 20.6053 280.617 20.1787 280.489 19.752C280.403 19.3253 280.361 18.92 280.361 18.536C280.361 18.1093 280.425 17.768 280.553 17.512C280.851 16.7013 281.129 16.0613 281.385 15.592C281.683 15.08 282.089 14.9093 282.601 15.08C283.326 15.2933 283.966 15.6773 284.521 16.232C285.118 16.7867 285.331 17.3413 285.161 17.896C284.435 19.5173 283.731 21.3093 283.049 23.272C285.395 24.1253 287.55 25.2347 289.513 26.6C291.518 27.9227 293.182 29.416 294.505 31.08C295.486 32.3173 295.977 33.704 295.977 35.24C295.977 36.648 295.571 38.12 294.761 39.656C293.993 41.192 292.947 42.7707 291.625 44.392C291.241 44.8613 290.729 45.4587 290.089 46.184C289.449 46.9093 288.787 47.6773 288.105 48.488C287.465 49.256 286.91 49.9813 286.441 50.664C286.014 51.3893 285.801 51.9653 285.801 52.392C285.801 52.8613 286.078 53.1173 286.633 53.16C286.803 53.16 286.974 53.16 287.145 53.16C287.358 53.2027 287.571 53.2027 287.785 53.16H287.913C288.339 53.16 288.553 53.3307 288.553 53.672C288.553 54.0133 288.339 54.3333 287.913 54.632C286.846 55.2293 285.779 55.528 284.713 55.528ZM301.774 52.968C301.347 52.968 300.75 52.6267 299.982 51.944C299.256 51.304 298.744 50.4507 298.446 49.384C298.275 48.6587 298.147 47.6773 298.062 46.44C297.976 45.2027 297.934 43.816 297.934 42.28C297.934 39.72 297.976 36.968 298.062 34.024C298.19 31.08 298.254 28.4347 298.254 26.088C298.254 25.32 298.232 24.5947 298.19 23.912C298.19 23.2293 298.168 22.632 298.126 22.12C298.04 22.0347 297.784 21.9707 297.358 21.928C296.974 21.8427 296.59 21.7787 296.206 21.736C295.864 21.6507 295.694 21.608 295.694 21.608C295.694 21.5227 296.014 21.3307 296.654 21.032C297.336 20.6907 298.296 20.52 299.534 20.52C300.814 20.52 301.646 20.7973 302.03 21.352C302.456 21.864 302.67 22.312 302.67 22.696C302.67 22.7813 302.67 22.888 302.67 23.016C302.67 23.144 302.648 23.2507 302.606 23.336C302.222 25.0853 301.859 26.8773 301.518 28.712C301.219 30.5467 300.984 32.6587 300.814 35.048C300.984 34.92 301.134 34.7707 301.262 34.6C301.39 34.3867 301.624 34.2373 301.966 34.152C302.35 34.0667 302.776 34.152 303.246 34.408C303.715 34.664 304.099 34.792 304.398 34.792C305.891 34.7493 306.979 34.4293 307.662 33.832C308.344 33.192 309.006 32.6587 309.646 32.232C309.731 28.776 310.072 26.024 310.67 23.976C311.267 21.8853 311.928 20.84 312.654 20.84C313.038 20.84 313.379 21.16 313.678 21.8C313.976 22.3973 314.126 23.3147 314.126 24.552C314.126 25.5333 313.934 26.6427 313.55 27.88C313.166 29.0747 312.974 30.4827 312.974 32.104C312.974 33.1707 313.059 34.3653 313.23 35.688C313.4 36.968 313.635 38.2053 313.934 39.4C314.232 40.552 314.574 41.512 314.958 42.28C315.342 43.0053 315.747 43.368 316.174 43.368C316.728 43.368 317.283 43.0267 317.838 42.344C318.392 41.6187 318.926 40.7867 319.438 39.848C319.95 38.9093 320.398 38.0987 320.782 37.416C321.208 36.6907 321.55 36.328 321.806 36.328C321.934 36.328 321.998 36.4347 321.998 36.648C321.998 36.8187 321.934 37.096 321.806 37.48C320.739 39.8693 319.843 41.7253 319.118 43.048C318.392 44.328 317.39 44.968 316.11 44.968C315.128 44.968 314.147 44.5413 313.166 43.688C312.526 43.0907 311.971 42.216 311.502 41.064C311.032 39.8693 310.648 38.6107 310.35 37.288C310.094 35.9653 309.88 34.792 309.71 33.768C309.283 34.4507 308.536 35.048 307.47 35.56C306.446 36.0293 305.379 36.264 304.27 36.264C303.544 36.264 302.883 36.136 302.286 35.88C301.859 35.6667 301.56 35.7307 301.39 36.072C301.219 36.3707 301.112 36.776 301.07 37.288C301.07 37.7573 301.07 38.1413 301.07 38.44C301.112 39.5493 301.176 40.872 301.262 42.408C301.39 43.9013 301.518 45.3733 301.646 46.824C301.774 48.2747 301.88 49.512 301.966 50.536C302.051 51.56 302.115 52.1147 302.158 52.2C302.2 52.2853 302.222 52.392 302.222 52.52C302.222 52.8187 302.072 52.968 301.774 52.968ZM327.148 47.144C325.612 47.144 324.481 46.6533 323.756 45.672C323.03 44.648 322.668 43.4107 322.668 41.96C322.668 40.424 323.03 38.5467 323.756 36.328C324.481 34.1093 325.249 32.0187 326.06 30.056C325.334 30.5253 324.588 30.952 323.82 31.336C323.052 31.72 322.369 31.912 321.772 31.912C321.345 31.912 321.025 31.8053 320.812 31.592C320.641 31.3787 320.556 31.144 320.556 30.888C320.556 30.6747 320.62 30.3547 320.748 29.928C320.876 29.5013 321.089 29.096 321.388 28.712C321.729 28.328 322.134 28.136 322.604 28.136C322.774 28.136 322.86 28.2 322.86 28.328C322.86 28.3707 322.838 28.4133 322.796 28.456C322.796 28.456 322.796 28.4773 322.796 28.52C322.753 28.6053 322.732 28.6907 322.732 28.776C322.732 28.9467 322.838 29.032 323.052 29.032C323.18 29.032 323.329 29.0107 323.5 28.968C323.713 28.9253 323.926 28.84 324.14 28.712C324.566 28.4987 325.057 28.2427 325.612 27.944C326.166 27.6027 326.785 27.2613 327.468 26.92L328.428 25C328.684 24.5307 328.982 24.2107 329.324 24.04C329.665 23.8267 329.985 23.72 330.284 23.72C330.753 23.72 331.158 23.8053 331.5 23.976C331.884 24.104 332.225 24.2747 332.524 24.488C332.993 24.2747 333.484 24.0827 333.996 23.912C334.55 23.6987 335.084 23.5493 335.596 23.464C337.217 22.8667 338.902 22.3973 340.652 22.056C342.401 21.672 344.129 21.48 345.836 21.48C346.774 21.48 347.734 21.608 348.716 21.864C349.697 22.12 350.188 22.5253 350.188 23.08C350.188 23.2507 350.017 23.336 349.676 23.336C348.993 23.336 348.204 23.2507 347.308 23.08C346.454 22.9093 345.601 22.824 344.748 22.824C343.681 22.824 342.657 22.888 341.676 23.016C340.694 23.1013 339.777 23.2507 338.924 23.464C339.606 23.7627 340.161 24.2747 340.588 25C341.057 25.7253 341.292 26.6427 341.292 27.752C341.292 28.9467 340.993 30.376 340.396 32.04C339.841 33.704 339.073 35.4107 338.092 37.16C337.153 38.9093 336.065 40.552 334.828 42.088C333.59 43.5813 332.31 44.7973 330.988 45.736C329.665 46.6747 328.385 47.144 327.148 47.144ZM327.852 45.8C328.748 45.8 329.665 45.3947 330.604 44.584C331.585 43.7733 332.545 42.7493 333.484 41.512C334.422 40.2747 335.254 38.9947 335.98 37.672C336.321 37.0747 336.705 36.264 337.132 35.24C337.601 34.216 337.985 33.128 338.284 31.976C338.625 30.824 338.796 29.7787 338.796 28.84C338.796 27.9867 338.604 27.2827 338.22 26.728C337.878 26.1307 337.217 25.832 336.236 25.832C335.766 25.832 335.169 25.96 334.444 26.216C333.718 26.472 332.95 26.7707 332.14 27.112C331.969 27.2827 331.798 27.4747 331.628 27.688C331.5 27.8587 331.393 28.0507 331.308 28.264C330.497 29.7573 329.686 31.4213 328.876 33.256C328.065 35.048 327.382 36.7973 326.828 38.504C326.316 40.2107 326.06 41.704 326.06 42.984C326.06 44.8613 326.657 45.8 327.852 45.8ZM352.322 49.448C350.786 49.448 349.57 48.9787 348.674 48.04C347.821 47.0587 347.202 45.8213 346.818 44.328C346.477 42.792 346.306 41.192 346.306 39.528C346.306 38.7173 346.327 37.8853 346.37 37.032C346.455 36.1787 346.541 35.3467 346.626 34.536C346.455 34.7067 346.285 34.8773 346.114 35.048C345.943 35.176 345.751 35.3253 345.538 35.496C345.367 35.6667 345.133 35.752 344.834 35.752C344.535 35.752 344.386 35.688 344.386 35.56C344.386 35.5173 344.429 35.4533 344.514 35.368C344.898 35.0267 345.282 34.664 345.666 34.28C346.05 33.8533 346.434 33.4053 346.818 32.936L347.458 29.032C347.885 26.6 348.375 23.9547 348.93 21.096C349.527 18.1947 350.21 15.272 350.978 12.328C351.789 9.384 352.685 6.61067 353.666 4.008C353.965 3.28267 354.221 2.68533 354.434 2.216C354.69 1.74666 355.031 1.512 355.458 1.512C355.927 1.512 356.418 1.704 356.93 2.088C357.442 2.472 357.826 2.87733 358.082 3.304H358.146C359.17 4.584 359.682 6.312 359.682 8.488C359.682 10.5787 359.277 12.904 358.466 15.464C357.655 17.9813 356.567 20.52 355.202 23.08C353.837 25.5973 352.322 27.9227 350.658 30.056C349.805 34.408 349.378 37.9493 349.378 40.68C349.378 42.6853 349.591 44.2853 350.018 45.48C350.445 46.6747 350.914 47.528 351.426 48.04C351.938 48.552 352.301 48.808 352.514 48.808C353.026 48.808 353.453 48.296 353.794 47.272C354.178 46.2053 354.498 44.8827 354.754 43.304C355.01 41.6827 355.202 40.0187 355.33 38.312C355.458 36.6053 355.522 35.0907 355.522 33.768C355.522 32.5307 355.458 31.592 355.33 30.952C354.69 30.568 354.37 29.7147 354.37 28.392C354.37 27.5813 354.498 27.176 354.754 27.176H354.882C354.925 27.2187 354.989 27.24 355.074 27.24H355.138C355.138 27.24 355.138 27.2613 355.138 27.304C355.181 27.304 355.223 27.304 355.266 27.304C355.906 27.4747 356.738 27.688 357.762 27.944C358.786 28.1573 359.874 28.3707 361.026 28.584C362.178 28.7973 363.223 28.968 364.162 29.096C365.143 29.224 365.869 29.288 366.338 29.288C366.509 29.288 366.637 29.2667 366.722 29.224C366.807 29.1813 366.871 29.16 366.914 29.16C367.042 29.16 367.106 29.2027 367.106 29.288C367.106 29.5013 366.935 29.7147 366.594 29.928C366.295 30.1413 365.719 30.3547 364.866 30.568C364.013 30.7813 363.031 30.952 361.922 31.08C360.855 31.208 359.789 31.272 358.722 31.272C358.295 31.272 357.89 31.2933 357.506 31.336C357.122 31.336 356.759 31.3147 356.418 31.272C356.546 32.0827 356.653 33.0853 356.738 34.28C356.823 35.432 356.866 36.776 356.866 38.312C356.866 40.0187 356.738 41.7467 356.482 43.496C356.269 45.2027 355.821 46.632 355.138 47.784C354.498 48.8933 353.559 49.448 352.322 49.448ZM351.298 26.984C352.621 24.9787 353.815 22.9093 354.882 20.776C355.949 18.6 356.802 16.488 357.442 14.44C358.125 12.3493 358.466 10.472 358.466 8.808C358.466 8.21067 358.402 7.63467 358.274 7.08C358.189 6.52533 358.039 6.03466 357.826 5.608C356.546 8.72267 355.33 12.1787 354.178 15.976C353.069 19.7307 352.109 23.4 351.298 26.984Z" fill="white"/>
</svg>
